<?xml version="1.0" encoding="utf-8"?>
<!-- Generator: Adobe Illustrator 25.2.3, SVG Export Plug-In . SVG Version: 6.00 Build 0)  -->
<svg version="1.1" id="Layer_1" xmlns="http://www.w3.org/2000/svg" xmlns:xlink="http://www.w3.org/1999/xlink" x="0px" y="0px"
	 viewBox="0 0 606.9 173" style="enable-background:new 0 0 606.9 173;" xml:space="preserve">
<style type="text/css">
	.st0{fill:#DF2A63;}
</style>
<path class="st0" d="M0.6,54.8H39l-3,113.4H1.4L0.6,54.8z"/>
<path class="st0" d="M96.8,0.5l-0.8,55.3c9.6-3.2,18.4-4.7,26.6-4.7c10.5,0,20.2,3.2,29,9.3c15.7,11.1,23.4,27.4,23.4,49
	c0,19.9-6.8,35.5-20.2,46.8c-11.8,10-26.2,15.1-43.3,15.1c-14.1,0-27.6-3.4-40.5-10.4c-3.7-2.1-7.3-4.4-10.8-7.3
	c1.5-5.8,2.2-12.9,2.2-21.4L61,27c0-6.2-0.7-13-1.9-20.5L96.8,0.5z M95.2,87.7l0.3,48.5c5.4,3.3,11.2,5.1,17.3,5.1
	c9.8,0,17.6-3.8,23.3-11.5c3.7-5.2,5.7-11.5,5.7-19c0-9.3-2.9-16.4-8.7-21.2c-5.3-4.5-11.6-6.7-19-6.7
	C107.7,82.6,101.5,84.4,95.2,87.7z"/>
<path class="st0" d="M247.3,50.1c11.2,0,21.8,3,31.6,9.2c19,11.9,28.6,29.2,28.6,51.6c0,9.2-2.1,18.1-6.4,26.4
	c-5.8,11.5-14.4,20.4-26.1,26.6c-9.3,5.1-19.4,7.5-30.4,7.5c-18.9,0-34.1-6.7-45.7-20.1c-9.3-11-14-23.8-14-38.8
	c0-17.9,6.7-33.1,19.8-45.7C216.5,55.7,230.8,50.1,247.3,50.1z M247.2,81.4c-9.1,0-16.4,3.6-21.9,10.8c-4.6,6.2-6.8,12.6-6.8,19.6
	c0,7.7,2.6,14.5,7.8,20.4c5.3,6,11.5,8.9,18.7,8.9c5.8,0,11.2-1.9,16.2-5.9c8.2-6.3,12.2-14.7,12.2-24.7c0-9.4-3.3-17.1-10-23.3
	C259,83.4,253.6,81.4,247.2,81.4z"/>
<path class="st0" d="M391.9,62.6l-0.1,27.8l-28.6-0.3l-0.8,32.2c0,5.3,0.8,9.3,2.5,11.8c2.8,4,6.5,6,11,6c3.5,0,7.9-1.2,13.4-3.8
	l8.9,22.6c-10.4,7.5-20.8,11.4-31.1,11.4c-10.4,0-19.3-3.4-26.6-10.1c-7.3-6.7-11-14.7-10.8-24l0.1-46.6L314.3,89l0.1-27.3h15.8
	l0.1-16.7c0.1-8.9-0.1-15.3-0.8-19.2l34.7,0.4c0,1.8-0.1,4.5-0.4,8.5c-0.1,1.4-0.1,4.4-0.3,9L363.1,62L391.9,62.6z"/>
<path class="st0" d="M479.1,62.6L479,90.4l-28.6-0.3l-0.8,32.2c0,5.3,0.8,9.3,2.5,11.8c2.8,4,6.5,6,11,6c3.5,0,7.9-1.2,13.4-3.8
	l8.9,22.6c-10.4,7.5-20.8,11.4-31.1,11.4c-10.4,0-19.3-3.4-26.6-10.1c-7.3-6.7-11-14.7-10.8-24l0.1-46.6L401.5,89l0.1-27.3l15.8,0
	l0.1-16.7c0.1-8.9-0.1-15.3-0.8-19.2l34.7,0.4c0,1.8-0.1,4.5-0.4,8.5c-0.1,1.4-0.1,4.4-0.3,9L450.3,62L479.1,62.6z"/>
<path class="st0" d="M497.3,60.1c16.6-6,31.9-8.9,46-8.9c14.1,0,25.8,3.2,35.2,9.6c7.8,5.2,12.1,13,13,23.4c0.1,1.5,0.3,3.2,0.3,4.9
	l0.3,37.5c0.1,16.2,2.8,28.8,7.9,38.1l-31.5,7.9l-4.4-11.6c-8.2,7-18,10.5-29.8,10.5c-14.1,0-25.4-5.2-33.5-15.6
	c-6.4-8.1-9.6-17-9.6-26.4c0-11.8,4.6-21.4,13.6-29c8.3-7,18.4-10.4,30.4-10.4c7.8,0,16.2,1.9,25.1,5.8c-1.5-12.2-9-18.4-22.5-18.4
	c-10.5,0-21.2,2.3-32,6.8L497.3,60.1z M542.1,111.9c-5.3,0-9.6,1.9-12.9,5.6c-3.2,3.6-4.9,7.3-4.9,11.4c0,4.7,1.9,8.9,6,12.7
	c3.3,3.1,7.3,4.8,12.1,4.8c5.4,0,9.8-1.9,13.6-6c2.6-2.9,4-6.3,4-10.5c0-5.3-1.7-9.7-5.1-13C551.1,113.5,546.9,111.9,542.1,111.9z"
	/>
<path class="st0" d="M39.1,42.2c0,0-1.7,0-2.2,0C8.6,42.2,0,26.6,0,26.6L0,0c0,0,9.6,9,36.2,9c0.7,0,2.9,0,2.9,0V42.2z"/>
<g>
	<path class="st0" d="M606.9,59.2c0,4.8-3.8,8.6-8.7,8.6c-4.9,0-8.7-3.8-8.7-8.6c0-4.7,3.9-8.5,8.7-8.5
		C603.1,50.7,606.9,54.5,606.9,59.2z M591.6,59.2c0,3.8,2.8,6.8,6.6,6.8c3.7,0,6.5-3,6.5-6.7c0-3.8-2.7-6.8-6.5-6.8
		S591.6,55.5,591.6,59.2z M596.8,63.7h-2v-8.5c0.8-0.2,1.9-0.3,3.3-0.3c1.6,0,2.3,0.3,2.9,0.6c0.5,0.4,0.8,1,0.8,1.9
		c0,0.9-0.7,1.7-1.8,2v0.1c0.8,0.3,1.3,0.9,1.6,2.1c0.3,1.3,0.4,1.8,0.6,2.1h-2.1c-0.3-0.3-0.4-1.1-0.7-2.1
		c-0.2-0.9-0.7-1.3-1.8-1.3h-0.9V63.7z M596.9,58.9h0.9c1.1,0,2-0.4,2-1.2c0-0.8-0.6-1.3-1.8-1.3c-0.5,0-0.9,0.1-1.1,0.1V58.9z"/>
</g>
</svg>
